<?xml version="1.0" standalone="no"?>
<!DOCTYPE svg PUBLIC "-//W3C//DTD SVG 20010904//EN"
 "http://www.w3.org/TR/2001/REC-SVG-20010904/DTD/svg10.dtd">
<svg version="1.0" xmlns="http://www.w3.org/2000/svg"
 width="121.000000pt" height="39.000000pt" viewBox="0 0 121.000000 39.000000"
 preserveAspectRatio="xMidYMid meet">
<metadata>
Created by potrace 1.10, written by Peter Selinger 2001-2011
</metadata>
<g transform="translate(0.000000,39.000000) scale(0.100000,-0.100000)"
fill="#000000" stroke="none">
<path d="M85 210 l0 -90 57 0 c38 0 62 5 72 16 20 19 21 63 2 70 -12 5 -12 9
0 32 21 41 -4 62 -75 62 l-56 0 0 -90z m105 40 c0 -16 -7 -20 -35 -20 -28 0
-35 4 -35 20 0 16 7 20 35 20 28 0 35 -4 35 -20z m5 -75 c0 -16 -8 -21 -37
-23 -35 -3 -38 -1 -38 23 0 24 3 26 38 23 29 -2 37 -7 37 -23z"/>
<path d="M545 210 c0 -79 2 -90 18 -90 15 0 17 11 17 90 0 79 -2 90 -17 90
-16 0 -18 -11 -18 -90z"/>
<path d="M610 290 c0 -5 9 -10 20 -10 11 0 20 5 20 10 0 6 -9 10 -20 10 -11 0
-20 -4 -20 -10z"/>
<path d="M283 252 c-43 -27 -33 -117 14 -128 32 -8 83 13 63 26 -8 5 -26 6
-41 3 -18 -3 -28 0 -32 11 -5 13 2 16 38 16 38 0 45 3 45 20 0 40 -54 73 -87
52z m55 -39 c2 -9 -7 -13 -27 -13 -23 0 -29 4 -24 16 6 17 44 15 51 -3z"/>
<path d="M418 243 c-37 -43 -27 -108 19 -120 32 -7 83 15 63 27 -8 5 -26 6
-41 3 -18 -3 -28 0 -32 11 -5 13 2 16 38 16 38 0 45 3 45 20 0 25 -34 60 -58
60 -11 0 -26 -8 -34 -17z m60 -30 c2 -9 -7 -13 -27 -13 -23 0 -29 4 -24 16 6
17 44 15 51 -3z"/>
<path d="M610 190 c0 -60 2 -70 18 -70 14 0 17 10 17 70 0 60 -2 70 -17 70
-15 0 -18 -10 -18 -70z"/>
<path d="M690 240 c-59 -59 20 -155 86 -105 21 15 18 17 -40 19 -52 2 -43 26
9 26 46 0 47 0 41 28 -13 52 -60 68 -96 32z m68 -27 c2 -9 -7 -13 -27 -13 -30
0 -39 9 -24 24 11 10 46 3 51 -11z"/>
<path d="M829 190 c30 -82 45 -86 71 -20 31 80 33 90 16 90 -8 0 -20 -16 -26
-37 -18 -57 -26 -59 -40 -9 -9 32 -18 46 -30 46 -16 0 -15 -7 9 -70z"/>
<path d="M970 240 c-59 -59 19 -154 84 -105 21 16 20 17 -38 19 -51 2 -43 26
8 26 48 0 54 7 35 43 -23 42 -57 49 -89 17z m64 -25 c4 -11 -2 -15 -24 -15
-29 0 -38 9 -23 23 12 12 41 7 47 -8z"/>
</g>
</svg>
